<?xml version="1.0" encoding="UTF-8"?>
<svg version="1.1" xmlns="http://www.w3.org/2000/svg" width="810" height="290">
<path d="M0 0 C2.97 0.495 2.97 0.495 6 1 C6 1.66 6 2.32 6 3 C6.73347656 3.26941406 7.46695313 3.53882813 8.22265625 3.81640625 C10.90899971 4.96121929 13.05229878 6.26658364 15.4375 7.9375 C20.38532748 11.30989983 25.40599858 13.86111711 31 16 C31 16.66 31 17.32 31 18 C33.63904371 19.41377341 36.07120629 20.37240135 39 21 C39 21.66 39 22.32 39 23 C40.32 23.33 41.64 23.66 43 24 C43 24.66 43 25.32 43 26 C44.32 26 45.64 26 47 26 C47 26.66 47 27.32 47 28 C47.66 28.2475 48.32 28.495 49 28.75 C51.45754602 29.77397751 53.85302166 30.84462195 56.25 32 C57.27867187 32.495 57.27867187 32.495 58.328125 33 C60 34 60 34 61 36 C62.6630584 36.67561748 64.33094605 37.33933281 66 38 C74.71607754 42.43215507 74.71607754 42.43215507 76 45 C77.64034193 45.72904086 79.31301918 46.38655243 81 47 C82.66666667 47.66666667 84.33333333 48.33333333 86 49 C86 49.66 86 50.32 86 51 C88.63904371 52.41377341 91.07120629 53.37240135 94 54 C94 54.66 94 55.32 94 56 C94.86625 56.2475 95.7325 56.495 96.625 56.75 C100.21084708 58.07809151 102.87866848 59.8084268 106 62 C110.44586538 64.7497117 115.04620435 67.16732395 119.671875 69.59765625 C122 71 122 71 123 73 C125.58774327 74.51695295 128.07471973 75.37315423 131 76 C131 76.66 131 77.32 131 78 C132.32 78.33 133.64 78.66 135 79 C135 79.66 135 80.32 135 81 C135.721875 81.103125 136.44375 81.20625 137.1875 81.3125 C141.37975434 82.33727328 144.44068776 84.62712517 148 87 C148 87.99 148 88.98 148 90 C143.77777778 93 143.77777778 93 141 93 C141 93.66 141 94.32 141 95 C138.42509258 96.02996297 135.85660978 97.0521419 133.25 98 C130.84296517 98.78431361 130.84296517 98.78431361 130 101 C128.1796875 102.1484375 128.1796875 102.1484375 125.875 103.375 C125.06417969 103.81328125 124.25335937 104.2515625 123.41796875 104.703125 C122.62003906 105.13109375 121.82210937 105.5590625 121 106 C117.78047467 107.77542756 114.6257739 109.52644137 111.6875 111.75 C110 113 110 113 108 113 C107.67 113.66 107.34 114.32 107 115 C105.22293916 116.10103609 103.40320915 117.13403304 101.5625 118.125 C100.57378906 118.66382813 99.58507812 119.20265625 98.56640625 119.7578125 C96 121 96 121 94 121 C94 121.66 94 122.32 94 123 C88.25 126 88.25 126 86 126 C85.67 126.66 85.34 127.32 85 128 C83.24273315 129.07897329 81.44388652 130.090995 79.625 131.0625 C78.64789062 131.58972656 77.67078125 132.11695313 76.6640625 132.66015625 C74 134 74 134 71 135 C70.67 135.66 70.34 136.32 70 137 C65.5 140 65.5 140 63 140 C62.67 140.66 62.34 141.32 62 142 C59.4375 142.625 59.4375 142.625 57 143 C57 143.66 57 144.32 57 145 C55.88625 145.515625 54.7725 146.03125 53.625 146.5625 C49.21401051 148.74840776 45.34515916 151.49098078 41.39453125 154.4140625 C38.10126533 156.59524678 34.72893494 157.75702169 31 159 C30.67 159.66 30.34 160.32 30 161 C27.03 161.99 27.03 161.99 24 163 C24.33 176.2 24.66 189.4 25 203 C25.66 203 26.32 203 27 203 C27.33 202.34 27.66 201.68 28 201 C29.71498952 199.9410803 31.47261431 198.95047363 33.25 198 C34.20390625 197.484375 35.1578125 196.96875 36.140625 196.4375 C39 195 39 195 41.796875 193.9375 C44.1644609 193.21099698 44.1644609 193.21099698 45 191 C45.99 191 46.98 191 48 191 C48 190.34 48 189.68 48 189 C49.11375 188.484375 50.2275 187.96875 51.375 187.4375 C55.78598949 185.25159224 59.65484084 182.50901922 63.60546875 179.5859375 C66.00830563 177.99449904 68.31236051 177.01352061 71 176 C72.35917857 175.03542166 73.69084721 174.03145371 75 173 C80.48571429 169 80.48571429 169 85 169 C85 168.34 85 167.68 85 167 C85.639375 166.87625 86.27875 166.7525 86.9375 166.625 C87.618125 166.41875 88.29875 166.2125 89 166 C89.33 165.34 89.66 164.68 90 164 C94.5 161 94.5 161 97 161 C97.33 160.34 97.66 159.68 98 159 C98.66 158.67 99.32 158.34 100 158 C98.54550599 156.9944239 97.08627557 155.99569565 95.625 155 C94.81289063 154.443125 94.00078125 153.88625 93.1640625 153.3125 C91.13681813 151.82714156 91.13681813 151.82714156 89 152 C89 151.34 89 150.68 89 150 C87.68 149.67 86.36 149.34 85 149 C85.18359375 147.21484375 85.18359375 147.21484375 86 145 C88.22265625 143.25390625 88.22265625 143.25390625 91.0625 141.5625 C92.05636719 140.96566406 93.05023437 140.36882812 94.07421875 139.75390625 C95.52248047 138.88572266 95.52248047 138.88572266 97 138 C98.4587565 137.0006174 99.91714973 136.0007041 101.375 135 C103.73990705 133.54945984 104.68598736 133.00785032 107.5 132.9375 C111.08792037 134.46236616 114.56089252 136.16524043 118 138 C118 138.66 118 139.32 118 140 C118.94875 140.309375 119.8975 140.61875 120.875 140.9375 C124 142 124 142 126 143 C126 143.66 126 144.32 126 145 C127.98 145.33 129.96 145.66 132 146 C132 146.66 132 147.32 132 148 C134.63904371 149.41377341 137.07120629 150.37240135 140 151 C140 151.66 140 152.32 140 153 C140.94875 153.2475 141.8975 153.495 142.875 153.75 C146 155 146 155 147.375 157.125 C147.58125 157.74375 147.7875 158.3625 148 159 C142.25 163 142.25 163 140 163 C139.67 163.66 139.34 164.32 139 165 C134.5 168 134.5 168 132 168 C131.67 168.66 131.34 169.32 131 170 C129.24273315 171.07897329 127.44388652 172.090995 125.625 173.0625 C124.64789062 173.58972656 123.67078125 174.11695313 122.6640625 174.66015625 C120 176 120 176 117 177 C116.67 177.66 116.34 178.32 116 179 C111.5 182 111.5 182 109 182 C108.67 182.66 108.34 183.32 108 184 C105.4375 184.625 105.4375 184.625 103 185 C103 185.66 103 186.32 103 187 C100.34771188 188.07525194 97.71631546 189.09456151 95 190 C95 190.66 95 191.32 95 192 C92.34771188 193.07525194 89.71631546 194.09456151 87 195 C86.67 195.66 86.34 196.32 86 197 C84.28501048 198.0589197 82.52738569 199.04952637 80.75 200 C79.31914063 200.7734375 79.31914063 200.7734375 77.859375 201.5625 C75 203 75 203 72.203125 204.0625 C69.8355391 204.78900302 69.8355391 204.78900302 69 207 C68.01 207 67.02 207 66 207 C66 207.66 66 208.32 66 209 C65.360625 209.12375 64.72125 209.2475 64.0625 209.375 C63.381875 209.58125 62.70125 209.7875 62 210 C61.67 210.66 61.34 211.32 61 212 C59.28224375 213.03468875 57.52520397 214.00480593 55.75 214.9375 C48.83628177 218.59055923 42.36226363 222.66700075 35.9375 227.125 C32.39887545 229.38369652 28.96090646 230.67969785 25 232 C25 232.66 25 233.32 25 234 C22.34771188 235.07525194 19.71631546 236.09456151 17 237 C16.67 237.66 16.34 238.32 16 239 C14.28501048 240.0589197 12.52738569 241.04952637 10.75 242 C9.79609375 242.515625 8.8421875 243.03125 7.859375 243.5625 C5.30463647 244.84684943 2.65489827 245.93804069 0 247 C0 165.49 0 83.98 0 0 Z M24 42 C24 72.03 24 102.06 24 133 C24.66 133.33 25.32 133.66 26 134 C28.64351944 132.81042981 28.64351944 132.81042981 31.5 131.125 C32.4796875 130.57070312 33.459375 130.01640625 34.46875 129.4453125 C35.3040625 128.96835938 36.139375 128.49140625 37 128 C37.99 127.505 37.99 127.505 39 127 C39 126.34 39 125.68 39 125 C39.87914062 124.73832031 40.75828125 124.47664063 41.6640625 124.20703125 C44.94953838 123.01825836 47.46943699 121.6089207 50.375 119.6875 C51.3340625 119.06230469 52.293125 118.43710938 53.28125 117.79296875 C54.1784375 117.20128906 55.075625 116.60960937 56 116 C61.8719238 112.17195737 67.95101282 108.82543167 74.14453125 105.55078125 C77.07746204 104.0136153 77.07746204 104.0136153 80 102 C80 101.34 80 100.68 80 100 C80.680625 99.9175 81.36125 99.835 82.0625 99.75 C85.88363154 98.77439195 88.62225925 97.03939064 92 95 C92.66 94.67 93.32 94.34 94 94 C94 93.34 94 92.68 94 92 C95.98 91.34 97.96 90.68 100 90 C100 89.01 100 88.02 100 87 C99.01257813 86.44570312 98.02515625 85.89140625 97.0078125 85.3203125 C95.71344465 84.58871328 94.41917913 83.85693301 93.125 83.125 C92.47402344 82.76019531 91.82304688 82.39539063 91.15234375 82.01953125 C88.49606646 80.51339464 86.16980999 79.16980999 84 77 C82.68 77 81.36 77 80 77 C80 76.34 80 75.68 80 75 C78.68 74.67 77.36 74.34 76 74 C76 73.34 76 72.68 76 72 C75.278125 71.731875 74.55625 71.46375 73.8125 71.1875 C69.94260818 69.55354568 66.60334282 67.4066006 63.125 65.0625 C59.82955418 62.88750576 56.43219505 60.94593989 53 59 C51.79773941 58.31065861 50.59591108 57.62056274 49.39453125 56.9296875 C48.80349609 56.59066406 48.21246094 56.25164062 47.60351562 55.90234375 C46.39731551 55.21045579 45.19159523 54.51773073 43.98632812 53.82421875 C38.80138422 50.43211965 38.80138422 50.43211965 33 49 C33 48.34 33 47.68 33 47 C30.04518508 44.25624329 29.22528092 44 25 44 C24.67 43.34 24.34 42.68 24 42 Z " fill="#02824E" transform="translate(647,28)"/>
<path d="M0 0 C1.99707474 -0.00434882 3.99399161 -0.04130955 5.99072266 -0.07861328 C13.19891825 -0.10052269 17.90318826 0.08283741 23.76806641 4.37060547 C24.88181641 4.70060547 25.99556641 5.03060547 27.14306641 5.37060547 C28.00931641 5.70060547 28.87556641 6.03060547 29.76806641 6.37060547 C30.78287176 8.74020173 30.88957094 9.97403853 30.13134766 12.44873047 C29.61121094 13.52380859 29.61121094 13.52380859 29.08056641 14.62060547 C28.525625 15.7865625 28.525625 15.7865625 27.95947266 16.97607422 C27.56630859 17.76626953 27.17314453 18.55646484 26.76806641 19.37060547 C26.38521484 20.15048828 26.00236328 20.93037109 25.60791016 21.73388672 C24.67372302 23.6190027 23.72256721 25.49569318 22.76806641 27.37060547 C21.77806641 27.37060547 20.78806641 27.37060547 19.76806641 27.37060547 C19.76806641 26.71060547 19.76806641 26.05060547 19.76806641 25.37060547 C18.74712891 25.46341797 18.74712891 25.46341797 17.70556641 25.55810547 C14.76806641 25.37060547 14.76806641 25.37060547 11.45556641 23.87060547 C3.89308313 20.79434109 -2.07842116 22.50735386 -9.52490234 25.16748047 C-12.9331284 26.6822476 -14.94260797 28.43740702 -17.23193359 31.37060547 C-17.97443359 32.07185547 -18.71693359 32.77310547 -19.48193359 33.49560547 C-22.14425873 37.86942533 -22.08720713 42.33412437 -22.23193359 47.37060547 C-22.26416016 48.21107422 -22.29638672 49.05154297 -22.32958984 49.91748047 C-22.2252568 52.53832654 -21.73375677 54.63169975 -20.91943359 57.12060547 C-20.67580078 57.89919922 -20.43216797 58.67779297 -20.18115234 59.47998047 C-19.32994823 61.73012171 -19.32994823 61.73012171 -16.23193359 62.37060547 C-15.90193359 63.03060547 -15.57193359 63.69060547 -15.23193359 64.37060547 C-14.24193359 64.70060547 -13.25193359 65.03060547 -12.23193359 65.37060547 C-12.23193359 66.03060547 -12.23193359 66.69060547 -12.23193359 67.37060547 C-8.00314531 68.98157243 -4.7299968 69.46240268 -0.23193359 69.37060547 C1.59337891 69.64904297 1.59337891 69.64904297 3.45556641 69.93310547 C6.76227445 70.61571626 6.76227445 70.61571626 9.76806641 69.37060547 C11.7669051 69.03037761 13.76697362 68.69731449 15.76806641 68.37060547 C17.99973826 68.00203683 17.99973826 68.00203683 19.76806641 67.37060547 C20.09806641 66.71060547 20.42806641 66.05060547 20.76806641 65.37060547 C24.12139297 68.37703618 25.89820308 71.29090367 27.76806641 75.37060547 C28.15994141 76.15435547 28.55181641 76.93810547 28.95556641 77.74560547 C29.22369141 78.28185547 29.49181641 78.81810547 29.76806641 79.37060547 C32.31218327 77.13743622 33.31869598 75.35298574 34.26806641 72.12060547 C35.52194339 68.07162771 37.09732973 64.26899104 38.76806641 60.37060547 C39.23630118 58.9363001 39.69403485 57.49853817 40.14306641 56.05810547 C41.54661327 51.6906857 43.50798146 47.76203574 45.68212891 43.72998047 C46.81473572 41.26920884 47.26773143 39.02150307 47.76806641 36.37060547 C48.76806641 34.7039388 49.76806641 33.03727214 50.76806641 31.37060547 C50.91244141 30.58685547 51.05681641 29.80310547 51.20556641 28.99560547 C51.84000359 26.03489863 53.17324006 23.90194711 54.72119141 21.32763672 C57.1045231 16.87222933 58.31364968 11.87586087 59.76806641 7.05810547 C61.45180805 2.53304979 61.45180805 2.53304979 63.76806641 0.37060547 C66.77199074 -0.26780636 69.70714241 -0.23280311 72.76806641 -0.19189453 C73.58791016 -0.21574219 74.40775391 -0.23958984 75.25244141 -0.26416016 C77.53633742 -0.25856237 79.54828685 -0.16852923 81.76806641 0.37060547 C83.67041016 2.56591797 83.67041016 2.56591797 84.76806641 5.37060547 C85.4196875 6.69898438 85.4196875 6.69898438 86.08447266 8.05419922 C91.25401018 19.4790392 91.25401018 19.4790392 92.26806641 25.18310547 C92.43306641 25.90498047 92.59806641 26.62685547 92.76806641 27.37060547 C93.42806641 27.70060547 94.08806641 28.03060547 94.76806641 28.37060547 C95.4743288 30.35696845 96.13700212 32.35908805 96.76806641 34.37060547 C97.09806641 35.03060547 97.42806641 35.69060547 97.76806641 36.37060547 C98.76806641 38.37060547 98.76806641 38.37060547 99.70556641 41.24560547 C100.70199686 44.40783023 100.70199686 44.40783023 102.26806641 47.37060547 C103.75217868 50.33883001 104.73001419 53.22197475 105.76806641 56.37060547 C106.5686213 58.50013432 107.38148429 60.62507018 108.20556641 62.74560547 C110.08901789 67.61025976 111.94693931 72.48231695 113.76806641 77.37060547 C114.42806641 77.37060547 115.08806641 77.37060547 115.76806641 77.37060547 C115.84154297 75.75605469 115.84154297 75.75605469 115.91650391 74.10888672 C116.3056523 66.26632772 116.93755394 58.62100389 118.22509766 50.86669922 C119.8257456 40.56036892 120.94319035 30.24424159 120.76806641 19.80810547 C120.6842907 13.85404639 120.79349026 8.05055909 122.76806641 2.37060547 C126.05153146 -0.91285958 130.18082102 -0.03873169 134.64306641 -0.06689453 C135.55443359 -0.09976563 136.46580078 -0.13263672 137.40478516 -0.16650391 C144.097779 -0.22040064 144.097779 -0.22040064 147.31103516 2.61279297 C148.62605218 5.10180643 149.53764058 7.21073194 150.20556641 9.93310547 C152.05697631 16.71821758 154.60933787 23.41409336 157.98291016 29.59716797 C158.24201172 30.18240234 158.50111328 30.76763672 158.76806641 31.37060547 C158.43806641 32.03060547 158.10806641 32.69060547 157.76806641 33.37060547 C158.42806641 33.70060547 159.08806641 34.03060547 159.76806641 34.37060547 C160.4743288 36.35696845 161.13700212 38.35908805 161.76806641 40.37060547 C162.41936438 41.71151306 163.08319915 43.04652878 163.76806641 44.37060547 C164.09806641 45.36060547 164.42806641 46.35060547 164.76806641 47.37060547 C165.42806641 47.37060547 166.08806641 47.37060547 166.76806641 47.37060547 C166.66494141 46.56623047 166.56181641 45.76185547 166.45556641 44.93310547 C166.83491639 40.60851561 168.38878764 38.13779684 170.67431641 34.51904297 C172.07052177 32.17830074 172.07052177 32.17830074 171.76806641 28.37060547 C172.42806641 28.37060547 173.08806641 28.37060547 173.76806641 28.37060547 C173.95369141 27.59716797 173.95369141 27.59716797 174.14306641 26.80810547 C174.34931641 26.00373047 174.55556641 25.19935547 174.76806641 24.37060547 C175.17025391 22.79279297 175.17025391 22.79279297 175.58056641 21.18310547 C176.74703739 17.43811967 178.19895729 14.0249769 179.86572266 10.48388672 C180.82285942 8.42844474 180.82285942 8.42844474 181.20166016 6.35107422 C181.93602977 3.78331286 182.95846967 2.3360454 184.76806641 0.37060547 C186.9128418 -0.09936523 186.9128418 -0.09936523 189.36572266 -0.05517578 C190.69120117 -0.04260742 190.69120117 -0.04260742 192.04345703 -0.02978516 C192.96320313 -0.00078125 193.88294922 0.02822266 194.83056641 0.05810547 C195.75417969 0.06777344 196.67779297 0.07744141 197.62939453 0.08740234 C204.4301743 0.20165942 204.4301743 0.20165942 206.76806641 1.37060547 C207.21964247 3.72883601 207.53143767 5.98710876 207.76806641 8.37060547 C207.84927734 9.18787109 207.93048828 10.00513672 208.01416016 10.84716797 C208.1839129 12.5760344 208.35056261 14.30520823 208.51416016 16.03466797 C208.74827948 18.48153747 208.74827948 18.48153747 209.33056641 21.30810547 C209.72219597 24.04951239 209.76337461 26.44148552 209.70556641 29.19873047 C209.67952471 35.92690863 210.41408619 42.50890251 211.20556641 49.18310547 C211.34027344 50.37097656 211.47498047 51.55884766 211.61376953 52.78271484 C212.34643294 59.18821188 212.34643294 59.18821188 213.31518555 65.56079102 C213.79598235 68.54380472 213.76806641 71.35367341 213.76806641 74.37060547 C213.94080078 75.12728516 214.11353516 75.88396484 214.29150391 76.66357422 C214.84064894 79.78289804 214.68018585 82.47005156 214.39306641 85.62060547 C214.30283203 86.67763672 214.21259766 87.73466797 214.11962891 88.82373047 C213.76806641 91.37060547 213.76806641 91.37060547 212.76806641 92.37060547 C211.35236517 92.45712158 209.9324714 92.47765451 208.51416016 92.46826172 C207.66015625 92.46503906 206.80615234 92.46181641 205.92626953 92.45849609 C205.0284375 92.45011719 204.13060547 92.44173828 203.20556641 92.43310547 C202.30386719 92.42859375 201.40216797 92.42408203 200.47314453 92.41943359 C198.23805327 92.40760771 196.00309204 92.39112767 193.76806641 92.37060547 C191.61608002 87.13198981 190.35886638 82.83503152 190.08056641 77.12060547 C190.01482422 75.82380859 189.94908203 74.52701172 189.88134766 73.19091797 C189.75189579 68.82526536 189.75410258 64.47178147 189.79541016 60.10498047 C189.78506643 53.02114162 189.78506643 53.02114162 187.76806641 46.37060547 C187.59355957 46.90645264 187.41905273 47.4422998 187.23925781 47.99438477 C185.05628712 54.62846848 182.64913417 61.16588753 180.19775391 67.70458984 C179.89869141 68.50832031 179.59962891 69.31205078 179.29150391 70.14013672 C179.02257324 70.85790283 178.75364258 71.57566895 178.4765625 72.31518555 C177.78633721 74.31759998 177.2796261 76.31680925 176.76806641 78.37060547 C175.17498313 82.40293429 173.46043707 86.37834646 171.76806641 90.37060547 C167.47806641 90.37060547 163.18806641 90.37060547 158.76806641 90.37060547 C155.0281963 84.36712977 153.11297297 79.58305302 152.22509766 72.55810547 C152.07427734 71.83623047 151.92345703 71.11435547 151.76806641 70.37060547 C151.10806641 70.04060547 150.44806641 69.71060547 149.76806641 69.37060547 C149.02587085 67.29187808 148.37257369 65.18096504 147.76806641 63.05810547 C146.68604104 59.28369668 145.60459465 55.83876005 143.76806641 52.37060547 C143.07845679 50.3783999 142.40727584 48.37954941 141.76806641 46.37060547 C140.44531039 50.3285395 140.69398605 54.3179415 140.76806641 58.43310547 C140.90294321 65.96597505 140.90294321 65.96597505 139.76806641 69.37060547 C139.57801727 70.97229835 139.42755706 72.57888246 139.30322266 74.18701172 C139.22523438 75.11578125 139.14724609 76.04455078 139.06689453 77.00146484 C138.90905445 78.95946459 138.75542321 80.91780807 138.60595703 82.87646484 C138.52667969 83.80394531 138.44740234 84.73142578 138.36572266 85.68701172 C138.29877197 86.537229 138.23182129 87.38744629 138.1628418 88.26342773 C137.76806641 90.37060547 137.76806641 90.37060547 135.76806641 92.37060547 C132.85042183 92.55833544 130.02935827 92.62613642 127.11181641 92.60107422 C125.82470764 92.60038689 125.82470764 92.60038689 124.51159668 92.59968567 C122.69586811 92.59666221 120.88014216 92.5887731 119.06445312 92.57641602 C116.27936654 92.55817946 113.49461266 92.55590618 110.70947266 92.55615234 C108.94775102 92.55123642 107.18603165 92.54540778 105.42431641 92.53857422 C104.58783569 92.5374614 103.75135498 92.53634857 102.88952637 92.53520203 C97.00019697 92.48667075 97.00019697 92.48667075 94.76806641 91.37060547 C94.76806641 90.38060547 94.76806641 89.39060547 94.76806641 88.37060547 C94.10806641 88.04060547 93.44806641 87.71060547 92.76806641 87.37060547 C92.40886973 85.70932083 92.07895008 84.04160524 91.76806641 82.37060547 C91.41744141 81.66935547 91.06681641 80.96810547 90.70556641 80.24560547 C89.76806641 78.37060547 89.76806641 78.37060547 89.76806641 75.37060547 C79.20806641 75.37060547 68.64806641 75.37060547 57.76806641 75.37060547 C52.46992401 84.10350028 52.46992401 84.10350028 52.76806641 89.37060547 C52.10806641 89.37060547 51.44806641 89.37060547 50.76806641 89.37060547 C50.27306641 90.85560547 50.27306641 90.85560547 49.76806641 92.37060547 C46.33084981 92.48665226 42.89413555 92.55780055 39.45556641 92.62060547 C38.47910156 92.65412109 37.50263672 92.68763672 36.49658203 92.72216797 C35.55878906 92.73505859 34.62099609 92.74794922 33.65478516 92.76123047 C32.3586731 92.79265137 32.3586731 92.79265137 31.03637695 92.82470703 C28.76806641 92.37060547 28.76806641 92.37060547 26.96264648 90.34619141 C26.56843506 89.69424805 26.17422363 89.04230469 25.76806641 88.37060547 C24.53056641 88.80373047 23.29306641 89.23685547 22.01806641 89.68310547 C9.47821946 93.83668253 -2.09533998 96.68031944 -14.54443359 90.80810547 C-15.43130859 90.33373047 -16.31818359 89.85935547 -17.23193359 89.37060547 C-17.91255859 89.20560547 -18.59318359 89.04060547 -19.29443359 88.87060547 C-21.95893114 88.1829932 -23.96309903 86.9036018 -26.23193359 85.37060547 C-26.72693359 84.38060547 -26.72693359 84.38060547 -27.23193359 83.37060547 C-29.24863187 82.23710013 -29.24863187 82.23710013 -31.23193359 81.37060547 C-31.23193359 80.71060547 -31.23193359 80.05060547 -31.23193359 79.37060547 C-31.82876953 79.11923828 -32.42560547 78.86787109 -33.04052734 78.60888672 C-38.02225581 75.79389933 -41.66317644 69.36541105 -44.23193359 64.37060547 C-44.23193359 63.38060547 -44.23193359 62.39060547 -44.23193359 61.37060547 C-44.89193359 61.04060547 -45.55193359 60.71060547 -46.23193359 60.37060547 C-47.72262567 53.81156034 -47.39037128 47.05834367 -47.23193359 40.37060547 C-47.23837891 39.64615234 -47.24482422 38.92169922 -47.25146484 38.17529297 C-46.78659635 27.59400053 -37.63882658 17.23553067 -30.23193359 10.37060547 C-28.58587533 9.337034 -26.92229917 8.33000215 -25.23193359 7.37060547 C-24.57193359 6.71060547 -23.91193359 6.05060547 -23.23193359 5.37060547 C-21.93914418 4.8216503 -20.62311353 4.3258701 -19.29443359 3.87060547 C-12.12770707 1.40578737 -7.9178756 -0.00193166 0 0 Z M71.76806641 33.37060547 C71.58630859 34.02287109 71.40455078 34.67513672 71.21728516 35.34716797 C70.07288928 39.32614441 68.96583274 42.98239748 67.08056641 46.68310547 C65.40237032 49.62093314 65.40237032 49.62093314 65.76806641 54.37060547 C70.38806641 54.37060547 75.00806641 54.37060547 79.76806641 54.37060547 C80.96933218 50.76680814 80.48464632 50.06792939 79.01806641 46.68310547 C78.64681641 45.80525391 78.27556641 44.92740234 77.89306641 44.02294922 C77.33619141 42.71003906 77.33619141 42.71003906 76.76806641 41.37060547 C75.74401071 38.71232756 74.7574897 36.04204838 73.76806641 33.37060547 C73.10806641 33.37060547 72.44806641 33.37060547 71.76806641 33.37060547 Z M29.76806641 80.37060547 C30.76806641 82.37060547 30.76806641 82.37060547 30.76806641 82.37060547 Z M27.76806641 86.37060547 C28.76806641 88.37060547 28.76806641 88.37060547 28.76806641 88.37060547 Z " fill="#02814D" transform="translate(342.23193359375,43.62939453125)"/>
<path d="M0 0 C2.43591248 -0.09186752 4.82064332 -0.03327184 7.25512695 0.08911133 C8.10010742 0.11166992 8.94508789 0.13422852 9.81567383 0.1574707 C11.90041493 0.21636169 13.984245 0.30604335 16.06762695 0.40161133 C20.92100041 9.76305895 20.92100041 9.76305895 22.69262695 14.65161133 C23.97038432 18.35291711 23.97038432 18.35291711 25.63012695 21.52661133 C27.08611476 24.43858695 28.07901158 27.30394983 29.06762695 30.40161133 C30.8971735 35.15843235 32.79530689 39.93181356 35.13012695 44.46411133 C36.06762695 46.40161133 36.06762695 46.40161133 37.00512695 49.27661133 C38.00905529 52.46088868 38.00905529 52.46088868 39.63012695 55.52661133 C40.84588076 57.95811893 41.43888508 59.80805111 42.06762695 62.40161133 C42.81231391 64.0852514 43.55702133 65.76888243 44.30200195 67.45239258 C45.57413149 70.69113054 46.29468296 74.01254921 47.06762695 77.40161133 C47.52137695 76.90661133 47.97512695 76.41161133 48.44262695 75.90161133 C50.06762695 74.40161133 50.06762695 74.40161133 52.06762695 74.40161133 C52.06762695 73.08161133 52.06762695 71.76161133 52.06762695 70.40161133 C52.72762695 70.40161133 53.38762695 70.40161133 54.06762695 70.40161133 C54.35637695 69.63848633 54.64512695 68.87536133 54.94262695 68.08911133 C56.06762695 65.40161133 56.06762695 65.40161133 58.06762695 62.40161133 C60.04762695 63.06161133 62.02762695 63.72161133 64.06762695 64.40161133 C64.06762695 65.06161133 64.06762695 65.72161133 64.06762695 66.40161133 C72.90769308 71.07566928 81.24012755 72.31917219 91.06762695 70.40161133 C90.73762695 69.41161133 90.40762695 68.42161133 90.06762695 67.40161133 C90.15012695 66.61786133 90.23262695 65.83411133 90.31762695 65.02661133 C90.28639608 62.19329808 90.28639608 62.19329808 88.00512695 59.77661133 C84.05256255 56.58092096 79.91636475 55.08484051 75.19262695 53.33911133 C73.06762695 52.40161133 73.06762695 52.40161133 72.06762695 50.40161133 C70.0429944 49.74947841 70.0429944 49.74947841 68.06762695 49.40161133 C68.06762695 48.74161133 68.06762695 48.08161133 68.06762695 47.40161133 C67.49012695 47.31911133 66.91262695 47.23661133 66.31762695 47.15161133 C63.41369335 46.18363346 62.03022091 44.71466849 60.06762695 42.40161133 C60.06762695 41.74161133 60.06762695 41.08161133 60.06762695 40.40161133 C59.40762695 40.07161133 58.74762695 39.74161133 58.06762695 39.40161133 C57.33682429 37.4241453 56.67340949 35.42088644 56.06762695 33.40161133 C55.73762695 32.41161133 55.40762695 31.42161133 55.06762695 30.40161133 C54.06495545 22.52347806 57.27319257 17.17738701 61.06762695 10.40161133 C61.72762695 10.40161133 62.38762695 10.40161133 63.06762695 10.40161133 C63.31778564 9.80783691 63.56794434 9.2140625 63.82568359 8.60229492 C66.14574914 4.49121357 69.85262571 2.3448762 74.06762695 0.40161133 C78.1260962 -0.37136435 82.01113838 -0.35186617 86.13012695 -0.22338867 C87.68570313 -0.23305664 87.68570313 -0.23305664 89.27270508 -0.24291992 C95.98828053 -0.14923402 100.29422634 0.98617524 106.06762695 4.40161133 C107.01637695 4.77286133 107.96512695 5.14411133 108.94262695 5.52661133 C111.06762695 6.40161133 111.06762695 6.40161133 113.06762695 8.40161133 C112.70233195 12.18273504 111.35667804 15.1759751 109.63012695 18.52661133 C109.19829102 19.37481445 108.76645508 20.22301758 108.3215332 21.09692383 C107.06762695 23.40161133 107.06762695 23.40161133 105.06762695 26.40161133 C101.45341264 25.46191561 98.54452287 24.68341346 95.31762695 22.77661133 C90.69560435 20.82114023 86.02376493 20.60800682 81.06762695 21.40161133 C78.63828978 23.23279637 78.13907637 23.91337368 77.69262695 26.96411133 C77.81637695 27.76848633 77.94012695 28.57286133 78.06762695 29.40161133 C79.05762695 30.06161133 80.04762695 30.72161133 81.06762695 31.40161133 C81.06762695 32.06161133 81.06762695 32.72161133 81.06762695 33.40161133 C81.76887695 33.50473633 82.47012695 33.60786133 83.19262695 33.71411133 C86.45407004 34.49402163 89.07716893 35.90638232 92.06762695 37.40161133 C93.05762695 37.40161133 94.04762695 37.40161133 95.06762695 37.40161133 C95.06762695 38.06161133 95.06762695 38.72161133 95.06762695 39.40161133 C95.78950195 39.69036133 96.51137695 39.97911133 97.25512695 40.27661133 C98.18325195 40.64786133 99.11137695 41.01911133 100.06762695 41.40161133 C101.27418945 41.74192383 101.27418945 41.74192383 102.50512695 42.08911133 C105.7115346 43.73141768 107.41114539 45.86120332 109.63793945 48.64770508 C111.02712091 50.42793637 111.02712091 50.42793637 112.6730957 51.92504883 C116.1247983 55.57979275 116.44158029 61.31358449 116.3371582 66.13598633 C115.79638443 70.68162094 114.41494298 75.0388737 113.06762695 79.40161133 C112.40762695 79.40161133 111.74762695 79.40161133 111.06762695 79.40161133 C110.72731445 80.51536133 110.72731445 80.51536133 110.38012695 81.65161133 C108.18349077 86.25408713 104.81776365 88.23392268 100.19262695 90.02661133 C96.52513237 91.29985473 92.81656174 92.39228273 89.06762695 93.40161133 C88.07762695 93.71098633 88.07762695 93.71098633 87.06762695 94.02661133 C81.36367995 95.09610139 76.41170447 94.15291438 70.94262695 92.46411133 C66.99508898 91.25911888 63.13238761 90.1302005 59.06762695 89.40161133 C59.06762695 88.74161133 59.06762695 88.08161133 59.06762695 87.40161133 C56.75762695 86.74161133 54.44762695 86.08161133 52.06762695 85.40161133 C52.39762695 87.38161133 52.72762695 89.36161133 53.06762695 91.40161133 C50.69146709 92.58969126 49.21645275 92.53075655 46.56762695 92.53442383 C45.23731445 92.53635742 45.23731445 92.53635742 43.88012695 92.53833008 C42.48793945 92.5325293 42.48793945 92.5325293 41.06762695 92.52661133 C39.67543945 92.53241211 39.67543945 92.53241211 38.25512695 92.53833008 C37.36825195 92.53704102 36.48137695 92.53575195 35.56762695 92.53442383 C34.75293945 92.5332959 33.93825195 92.53216797 33.09887695 92.53100586 C31.06762695 92.40161133 31.06762695 92.40161133 29.06762695 91.40161133 C28.11666763 89.30950082 27.25422194 87.17662611 26.44262695 85.02661133 C25.99661133 83.86387695 25.5505957 82.70114258 25.09106445 81.50317383 C24.06762695 78.40161133 24.06762695 78.40161133 24.06762695 75.40161133 C13.17762695 75.40161133 2.28762695 75.40161133 -8.93237305 75.40161133 C-9.59237305 77.71161133 -10.25237305 80.02161133 -10.93237305 82.40161133 C-12.1862793 85.01879883 -12.1862793 85.01879883 -13.49487305 87.27661133 C-13.92928711 88.0371582 -14.36370117 88.79770508 -14.8112793 89.58129883 C-15.93237305 91.40161133 -15.93237305 91.40161133 -16.93237305 92.40161133 C-18.42109164 92.48830565 -19.91381804 92.50864627 -21.4050293 92.49926758 C-22.30415039 92.49604492 -23.20327148 92.49282227 -24.12963867 92.48950195 C-25.54792969 92.47693359 -25.54792969 92.47693359 -26.99487305 92.46411133 C-27.94426758 92.45959961 -28.89366211 92.45508789 -29.87182617 92.45043945 C-32.2254037 92.43861243 -34.57885782 92.42213158 -36.93237305 92.40161133 C-38.0378418 90.10473633 -38.0378418 90.10473633 -38.93237305 87.40161133 C-37.24487305 84.15161133 -37.24487305 84.15161133 -36.0769043 82.34301758 C-34.47311988 79.6226051 -33.65149187 76.79052973 -32.71362305 73.78833008 C-31.89073669 71.27441227 -30.93425362 68.84938773 -29.93237305 66.40161133 C-28.05597785 61.79722619 -26.44237678 57.13753213 -24.93237305 52.40161133 C-24.27237305 52.40161133 -23.61237305 52.40161133 -22.93237305 52.40161133 C-22.82924805 51.74161133 -22.72612305 51.08161133 -22.61987305 50.40161133 C-21.4725609 45.3951583 -19.63811317 40.78594772 -17.30737305 36.21411133 C-15.84118062 33.52280297 -15.84118062 33.52280297 -15.43237305 30.83911133 C-14.82271484 27.86702758 -13.49740087 26.00999104 -11.93237305 23.40161133 C-8.97896145 17.12741806 -8.97896145 17.12741806 -7.93237305 10.40161133 C-7.27237305 10.40161133 -6.61237305 10.40161133 -5.93237305 10.40161133 C-5.82924805 9.67973633 -5.72612305 8.95786133 -5.61987305 8.21411133 C-3.80530253 0.79086831 -3.80530253 0.79086831 0 0 Z M6.06762695 33.40161133 C6.72762695 34.06161133 7.38762695 34.72161133 8.06762695 35.40161133 C8.06762695 34.74161133 8.06762695 34.08161133 8.06762695 33.40161133 C7.40762695 33.40161133 6.74762695 33.40161133 6.06762695 33.40161133 Z M6.06762695 35.40161133 C3.88971997 38.84370569 2.22788939 42.20627354 0.81762695 46.02661133 C0.4618457 46.96762695 0.10606445 47.90864258 -0.26049805 48.87817383 C-1.20560717 51.49802335 -1.20560717 51.49802335 0.06762695 54.40161133 C5.01762695 54.40161133 9.96762695 54.40161133 15.06762695 54.40161133 C12.50386096 43.78498607 12.50386096 43.78498607 6.06762695 35.40161133 Z M50.06762695 83.40161133 C51.06762695 85.40161133 51.06762695 85.40161133 51.06762695 85.40161133 Z " fill="#02814D" transform="translate(113.932373046875,43.598388671875)"/>
<path d="M0 0 C3.58792037 1.52486616 7.06089252 3.22774043 10.5 5.0625 C10.5 5.7225 10.5 6.3825 10.5 7.0625 C11.44875 7.371875 12.3975 7.68125 13.375 8 C16.5 9.0625 16.5 9.0625 18.5 10.0625 C18.5 10.7225 18.5 11.3825 18.5 12.0625 C21.47 12.5575 21.47 12.5575 24.5 13.0625 C24.5 13.7225 24.5 14.3825 24.5 15.0625 C27.13904371 16.47627341 29.57120629 17.43490135 32.5 18.0625 C32.5 18.7225 32.5 19.3825 32.5 20.0625 C33.44875 20.31 34.3975 20.5575 35.375 20.8125 C38.5 22.0625 38.5 22.0625 39.875 24.1875 C40.08125 24.80625 40.2875 25.425 40.5 26.0625 C34.75 30.0625 34.75 30.0625 32.5 30.0625 C32.17 30.7225 31.84 31.3825 31.5 32.0625 C27 35.0625 27 35.0625 24.5 35.0625 C24.17 35.7225 23.84 36.3825 23.5 37.0625 C21.74273315 38.14147329 19.94388652 39.153495 18.125 40.125 C17.14789062 40.65222656 16.17078125 41.17945313 15.1640625 41.72265625 C12.5 43.0625 12.5 43.0625 9.5 44.0625 C9.005 45.0525 9.005 45.0525 8.5 46.0625 C4 49.0625 4 49.0625 1.5 49.0625 C1.005 50.0525 1.005 50.0525 0.5 51.0625 C-2.0625 51.6875 -2.0625 51.6875 -4.5 52.0625 C-4.5 52.7225 -4.5 53.3825 -4.5 54.0625 C-7.15228812 55.13775194 -9.78368454 56.15706151 -12.5 57.0625 C-12.5 57.7225 -12.5 58.3825 -12.5 59.0625 C-15.15228812 60.13775194 -17.78368454 61.15706151 -20.5 62.0625 C-20.995 63.0525 -20.995 63.0525 -21.5 64.0625 C-23.21498952 65.1214197 -24.97261431 66.11202637 -26.75 67.0625 C-28.18085937 67.8359375 -28.18085937 67.8359375 -29.640625 68.625 C-32.5 70.0625 -32.5 70.0625 -35.296875 71.125 C-37.6644609 71.85150302 -37.6644609 71.85150302 -38.5 74.0625 C-39.49 74.0625 -40.48 74.0625 -41.5 74.0625 C-41.5 74.7225 -41.5 75.3825 -41.5 76.0625 C-42.139375 76.18625 -42.77875 76.31 -43.4375 76.4375 C-44.4584375 76.746875 -44.4584375 76.746875 -45.5 77.0625 C-45.83 77.7225 -46.16 78.3825 -46.5 79.0625 C-48.21775625 80.09718875 -49.97479603 81.06730593 -51.75 82 C-58.66371823 85.65305923 -65.13773637 89.72950075 -71.5625 94.1875 C-75.10112455 96.44619652 -78.53909354 97.74219785 -82.5 99.0625 C-82.5 99.7225 -82.5 100.3825 -82.5 101.0625 C-85.15228812 102.13775194 -87.78368454 103.15706151 -90.5 104.0625 C-90.83 104.7225 -91.16 105.3825 -91.5 106.0625 C-93.21498952 107.1214197 -94.97261431 108.11202637 -96.75 109.0625 C-97.70390625 109.578125 -98.6578125 110.09375 -99.640625 110.625 C-102.22450995 111.92400227 -104.81018369 113.00784758 -107.5 114.0625 C-107.77855519 104.92676355 -107.99149889 95.79249613 -108.12174606 86.6534338 C-108.18427564 82.40910915 -108.26899469 78.16769676 -108.40527344 73.92504883 C-108.53607942 69.82693214 -108.60748518 65.73160665 -108.63852692 61.63156319 C-108.66063123 60.07110175 -108.7038071 58.51078662 -108.76876068 56.95152092 C-108.96141339 52.13321607 -108.95991359 47.71617404 -107.5 43.0625 C-103.30087159 39.00232544 -98.44641703 36.0625 -92.5 36.0625 C-92.5 35.4025 -92.5 34.7425 -92.5 34.0625 C-87.20588235 30.0625 -87.20588235 30.0625 -83.5 30.0625 C-83.005 49.8625 -83.005 49.8625 -82.5 70.0625 C-81.84 70.0625 -81.18 70.0625 -80.5 70.0625 C-80.17 69.4025 -79.84 68.7425 -79.5 68.0625 C-77.78501048 67.0035803 -76.02738569 66.01297363 -74.25 65.0625 C-73.29609375 64.546875 -72.3421875 64.03125 -71.359375 63.5 C-68.5 62.0625 -68.5 62.0625 -65.703125 61 C-63.3355391 60.27349698 -63.3355391 60.27349698 -62.5 58.0625 C-61.51 58.0625 -60.52 58.0625 -59.5 58.0625 C-59.5 57.4025 -59.5 56.7425 -59.5 56.0625 C-58.38625 55.546875 -57.2725 55.03125 -56.125 54.5 C-51.71401051 52.31409224 -47.84515916 49.57151922 -43.89453125 46.6484375 C-41.49169437 45.05699904 -39.18763949 44.07602061 -36.5 43.0625 C-35.14082143 42.09792166 -33.80915279 41.09395371 -32.5 40.0625 C-27.01428571 36.0625 -27.01428571 36.0625 -22.5 36.0625 C-22.5 35.4025 -22.5 34.7425 -22.5 34.0625 C-21.860625 33.93875 -21.22125 33.815 -20.5625 33.6875 C-19.881875 33.48125 -19.20125 33.275 -18.5 33.0625 C-18.005 32.0725 -18.005 32.0725 -17.5 31.0625 C-13 28.0625 -13 28.0625 -10.5 28.0625 C-10.17 27.4025 -9.84 26.7425 -9.5 26.0625 C-8.51 25.5675 -8.51 25.5675 -7.5 25.0625 C-8.95449401 24.0569239 -10.41372443 23.05819565 -11.875 22.0625 C-12.68710937 21.505625 -13.49921875 20.94875 -14.3359375 20.375 C-16.36318187 18.88964156 -16.36318187 18.88964156 -18.5 19.0625 C-18.5 18.4025 -18.5 17.7425 -18.5 17.0625 C-19.82 16.7325 -21.14 16.4025 -22.5 16.0625 C-22.31640625 14.27734375 -22.31640625 14.27734375 -21.5 12.0625 C-19.27734375 10.31640625 -19.27734375 10.31640625 -16.4375 8.625 C-14.94669922 7.72974609 -14.94669922 7.72974609 -13.42578125 6.81640625 C-12.46027344 6.23761719 -11.49476563 5.65882813 -10.5 5.0625 C-9.0412435 4.0631174 -7.58285027 3.0632041 -6.125 2.0625 C-3.76009295 0.61195984 -2.81401264 0.07035032 0 0 Z " fill="#50B156" transform="translate(754.5,160.9375)"/>
<path d="M0 0 C1.11375 0.26296875 2.2275 0.5259375 3.375 0.796875 C10.4013019 2.61299541 16.16585273 4.65298831 22 9 C22.495 9.99 22.495 9.99 23 11 C23.99 11.33 24.98 11.66 26 12 C27.22513263 16.41047745 27.22513263 16.41047745 26.2421875 18.984375 C24.50927591 21.79626927 22.23482405 23.42708633 19.65625 25.4375 C17.84269348 27.14840238 16.9805477 28.72512933 16 31 C11.29219996 30.30254814 8.16168343 27.50588593 5.3125 23.8125 C1.10920695 20.51802707 -4.12228647 20.72499666 -9.2890625 21.21875 C-14.22141545 22.17935807 -16.23166639 23.94636865 -19 28 C-19.680625 28.4125 -20.36125 28.825 -21.0625 29.25 C-25.07706552 32.87605918 -25.82337914 38.02375578 -26.2890625 43.234375 C-26.45136057 49.63777176 -26.1079759 54.38173587 -23 60 C-22.4740625 61.1446875 -22.4740625 61.1446875 -21.9375 62.3125 C-20.65838616 64.61490492 -19.3509761 65.82451195 -17 67 C-17 67.66 -17 68.32 -17 69 C-16.34 69 -15.68 69 -15 69 C-15 69.66 -15 70.32 -15 71 C-9.07349597 72.5294204 -3.2749421 72.90997684 2.4375 70.625 C6.86280244 67.81871065 10.33355699 63.99932902 12 59 C11.43490723 59.01571045 10.86981445 59.0314209 10.28759766 59.04760742 C7.73349977 59.10987045 5.17956129 59.14896136 2.625 59.1875 C1.29082031 59.22520508 1.29082031 59.22520508 -0.0703125 59.26367188 C-0.92109375 59.27333984 -1.771875 59.28300781 -2.6484375 59.29296875 C-3.82672119 59.31653442 -3.82672119 59.31653442 -5.02880859 59.34057617 C-6.00454834 59.17199097 -6.00454834 59.17199097 -7 59 C-9.44508878 55.33236683 -9.29885724 53.36568225 -9.3125 49 C-9.32925781 47.7625 -9.34601563 46.525 -9.36328125 45.25 C-9 42 -9 42 -7.7270813 40.31341553 C-5.6153156 38.70745415 -4.62893948 38.65515129 -2.00341797 38.73535156 C-1.20604218 38.75237122 -0.40866638 38.76939087 0.41287231 38.78692627 C1.26920258 38.82114685 2.12553284 38.85536743 3.0078125 38.890625 C3.88903778 38.91469421 4.77026306 38.93876343 5.67819214 38.96356201 C7.53942548 39.0172001 9.40045915 39.07819731 11.26123047 39.14599609 C14.12050592 39.24983679 16.97976247 39.33197971 19.83984375 39.41015625 C21.64587202 39.46488377 23.45186382 39.52083138 25.2578125 39.578125 C26.54838058 39.61731049 26.54838058 39.61731049 27.86502075 39.6572876 C33.88266882 39.88266882 33.88266882 39.88266882 35 41 C36.41462018 54.57498177 35.79505771 67.02358233 27 78 C17.99940361 87.47431199 9.6297557 92.4747406 -3.4375 93.1875 C-15.08426708 93.38830633 -23.44244094 91.97853519 -33 85 C-33.495 84.01 -33.495 84.01 -34 83 C-34.66 82.71125 -35.32 82.4225 -36 82.125 C-36.99 81.568125 -36.99 81.568125 -38 81 C-38.36162029 79.67405895 -38.69728039 78.34061543 -39 77 C-39.99 76.67 -40.98 76.34 -42 76 C-42 75.34 -42 74.68 -42 74 C-42.66 73.67 -43.32 73.34 -44 73 C-44.90404768 71.13685045 -45.72518835 69.23299352 -46.5 67.3125 C-46.9228125 66.27738281 -47.345625 65.24226563 -47.78125 64.17578125 C-48.1834375 63.12777344 -48.585625 62.07976562 -49 61 C-49.37511719 60.06414062 -49.75023437 59.12828125 -50.13671875 58.1640625 C-51.25359695 54.070527 -51.33002327 50.28560751 -51.3125 46.0625 C-51.32861328 45.28970703 -51.34472656 44.51691406 -51.36132812 43.72070312 C-51.36585648 38.36366384 -50.36457805 34.79974051 -48 30 C-47.50891514 28.65010974 -47.02711891 27.29672674 -46.5625 25.9375 C-42.99450452 16.36122198 -35.21844314 8.90450489 -26.34375 4.01953125 C-18.06439883 0.41801349 -8.91505801 -2.2874162 0 0 Z " fill="#02814D" transform="translate(363,171)"/>
<path d="M0 0 C1.06812172 -0.00855011 1.06812172 -0.00855011 2.15782166 -0.01727295 C3.67184965 -0.02674228 5.18589844 -0.03326457 6.69995117 -0.03710938 C8.99370723 -0.04673386 11.28653577 -0.07770239 13.58007812 -0.109375 C20.92670821 -0.16181573 27.23214612 -0.08337284 33.96484375 3.203125 C35.62157012 3.58279146 37.2855462 3.94073476 38.96484375 4.203125 C38.96484375 4.863125 38.96484375 5.523125 38.96484375 6.203125 C39.95484375 6.533125 40.94484375 6.863125 41.96484375 7.203125 C44.96466657 9.40737437 46.55818952 11.76463689 47.96484375 15.203125 C48.7269605 21.50054376 48.30863699 27.88751586 47.96484375 34.203125 C47.30484375 34.203125 46.64484375 34.203125 45.96484375 34.203125 C44.44131607 37.14135696 43.17949592 40.12566592 41.96484375 43.203125 C42.54492188 43.50863281 43.125 43.81414062 43.72265625 44.12890625 C50.54544157 48.12575244 54.32583943 52.71432784 56.96484375 60.203125 C58.26536296 67.62314159 56.8034063 72.84550578 52.96484375 79.203125 C52.30484375 79.203125 51.64484375 79.203125 50.96484375 79.203125 C50.85398438 79.8115625 50.743125 80.42 50.62890625 81.046875 C49.7150042 84.0143687 47.94290674 85.30698496 45.40234375 86.97583008 C34.06940453 92.68202854 21.95232493 92.7486122 9.58984375 92.515625 C7.98048041 92.50409707 6.37110352 92.49432284 4.76171875 92.48632812 C3.23826649 92.47293929 1.71482668 92.45802625 0.19140625 92.44140625 C-0.52195892 92.43401932 -1.2353241 92.42663239 -1.9703064 92.41902161 C-6.9165969 92.32168435 -6.9165969 92.32168435 -8.03515625 91.203125 C-8.135675 88.40860229 -8.17131519 85.63876145 -8.16455078 82.84375 C-8.1663031 81.96738892 -8.16805542 81.09102783 -8.16986084 80.18811035 C-8.17428057 77.27642873 -8.17134094 74.3648073 -8.16796875 71.453125 C-8.16864175 69.43912748 -8.16961175 67.42513005 -8.17086792 65.41113281 C-8.17234506 61.18423695 -8.17018983 56.95736217 -8.16552734 52.73046875 C-8.15983005 47.29931968 -8.16310897 41.86822001 -8.16909981 36.43707275 C-8.17270499 32.27652613 -8.17156703 28.11599131 -8.16897202 23.95544434 C-8.16830263 21.95227045 -8.16913158 19.94909551 -8.17145157 17.94592285 C-8.1739774 15.15141948 -8.17013849 12.35699729 -8.16455078 9.5625 C-8.16657501 8.72609985 -8.16859924 7.88969971 -8.17068481 7.0279541 C-8.14305169 -0.3923302 -6.84658024 0.04207359 0 0 Z M13.96484375 20.203125 C13.89164754 22.89967354 13.87241838 25.57003958 13.90234375 28.265625 C13.90685547 29.02423828 13.91136719 29.78285156 13.91601562 30.56445312 C13.92783695 32.44404371 13.94577297 34.32359399 13.96484375 36.203125 C17.34016176 35.65290193 20.6608729 35.09265561 23.96484375 34.203125 C23.96484375 33.543125 23.96484375 32.883125 23.96484375 32.203125 C24.62484375 32.203125 25.28484375 32.203125 25.96484375 32.203125 C26.59544922 29.34114632 27.07694017 27.09094241 26.96484375 24.203125 C25.13151042 21.03645833 25.13151042 21.03645833 21.96484375 19.203125 C17.65956405 18.48891055 17.65956405 18.48891055 13.96484375 20.203125 Z M13.96484375 56.203125 C13.96484375 62.143125 13.96484375 68.083125 13.96484375 74.203125 C21.95683089 74.203125 25.50817201 74.07839709 31.90234375 69.953125 C33.70926394 66.97702115 33.37325152 64.58707512 32.96484375 61.203125 C31.10768188 58.29502957 31.10768188 58.29502957 28.96484375 56.203125 C27.64484375 56.533125 26.32484375 56.863125 24.96484375 57.203125 C24.63484375 56.543125 24.30484375 55.883125 23.96484375 55.203125 C22.68609375 55.1825 21.40734375 55.161875 20.08984375 55.140625 C19.37054688 55.12902344 18.65125 55.11742187 17.91015625 55.10546875 C15.88298971 55.07663258 15.88298971 55.07663258 13.96484375 56.203125 Z " fill="#02824E" transform="translate(24.03515625,43.796875)"/>
<path d="M0 0 C46.13253012 0 46.13253012 0 59 12 C61.25472068 14.52250223 63.15969224 17.16394497 65 20 C65.46535156 20.70125 65.93070312 21.4025 66.41015625 22.125 C73.13501078 33.10435433 72.98072225 45.75428934 70.7578125 58.07421875 C69.59432238 62.5662502 67.5618956 66.16451837 65 70 C64.57203125 70.66128906 64.1440625 71.32257813 63.703125 72.00390625 C60.12181743 77.29849367 56.95240715 79.85051964 51 82 C51 82.66 51 83.32 51 84 C32.37398996 91.11174929 23.99950886 89.70586791 0 89 C0 59.63 0 30.26 0 0 Z M22 19 C22.33 19.66 22.66 20.32 23 21 C23.06165093 22.57384217 23.05806613 24.15046768 23.02172852 25.72509766 C23.00163223 26.70596344 22.98153595 27.68682922 22.96083069 28.69741821 C22.93379562 29.75891083 22.90676056 30.82040344 22.87890625 31.9140625 C22.85529526 32.99883881 22.83168427 34.08361511 22.80735779 35.20126343 C22.7306057 38.67597162 22.64663096 42.15046338 22.5625 45.625 C22.50929088 47.97655181 22.45655042 50.32811427 22.40429688 52.6796875 C22.27497497 58.45325977 22.1397181 64.22667048 22 70 C29.8786116 70.11993203 35.01759238 68.30159161 41.125 63.23828125 C45.89856663 58.33543052 47.38933791 53.72838596 48 47 C48.12375 45.865625 48.2475 44.73125 48.375 43.5625 C47.71222057 37.2660954 45.87125577 30.52840387 41.4375 25.8125 C39.10502312 23.70164862 39.10502312 23.70164862 36 24 C36 23.34 36 22.68 36 22 C31.07015675 19.96006486 27.42039575 18.59347032 22 19 Z " fill="#02824D" transform="translate(205,173)"/>
<path d="M0 0 C6.93 0 13.86 0 21 0 C24 7 24 7 24 10 C24.66 10.33 25.32 10.66 26 11 C27 13.36328125 27 13.36328125 28 16.3125 C29.32271191 20.22048644 29.32271191 20.22048644 31 23.98046875 C32.2837495 26.57304099 33.09576485 29.2530432 34 32 C34.8135877 34.04961516 35.6470529 36.0914493 36.5 38.125 C36.9228125 39.13820312 37.345625 40.15140625 37.78125 41.1953125 C38.91802886 43.90760653 38.91802886 43.90760653 40.09375 46.07421875 C41.4527367 48.96206548 41.86515753 51.95188618 42.4375 55.07421875 C42.7159375 56.02748047 42.7159375 56.02748047 43 57 C43.66 57.33 44.32 57.66 45 58 C45.37920989 59.32101807 45.69996126 60.65878203 46 62 C46.7652604 64.15539169 47.55973612 66.30052045 48.375 68.4375 C48.79523438 69.54996094 49.21546875 70.66242188 49.6484375 71.80859375 C50.89519624 74.97665402 50.89519624 74.97665402 52.6015625 77.59765625 C54 80 54 80 55 85 C55.33 57.28 55.66 29.56 56 1 C56.33 1 56.66 1 57 1 C57.02312255 12.3261163 57.04091464 23.65222703 57.05181217 34.97836208 C57.05704119 40.23696664 57.06413918 45.4955551 57.07543945 50.75415039 C57.08626766 55.82453127 57.09227669 60.89489662 57.09487724 65.96528816 C57.09673161 67.90426948 57.10035245 69.84324991 57.10573006 71.78222466 C57.1129396 74.4882176 57.11399098 77.19414556 57.11352539 79.90014648 C57.11712067 80.71006546 57.12071594 81.51998444 57.12442017 82.35444641 C57.11405216 87.88594784 57.11405216 87.88594784 56 89 C54.21928754 89.08726223 52.4351686 89.10699041 50.65234375 89.09765625 C49.57275391 89.09443359 48.49316406 89.09121094 47.38085938 89.08789062 C46.24455078 89.07951172 45.10824219 89.07113281 43.9375 89.0625 C42.79732422 89.05798828 41.65714844 89.05347656 40.48242188 89.04882812 C37.65489649 89.03699747 34.8274736 89.0205141 32 89 C32 88.01 32 87.02 32 86 C31.34 85.67 30.68 85.34 30 85 C29.7834375 83.63875 29.7834375 83.63875 29.5625 82.25 C28.97110259 78.83303721 27.84484307 76.88758046 26 74 C26 73.34 26 72.68 26 72 C10.655 72.495 10.655 72.495 -5 73 C-9.95671817 82.79892917 -9.95671817 82.79892917 -11 89 C-18.92 89 -26.84 89 -35 89 C-35 87.35 -35 85.7 -35 84 C-34.34 84 -33.68 84 -33 84 C-32.87238281 83.27167969 -32.74476563 82.54335937 -32.61328125 81.79296875 C-32.02807367 79.12785144 -31.23116077 76.82809668 -30.1875 74.3125 C-29.83171875 73.44753906 -29.4759375 72.58257812 -29.109375 71.69140625 C-28.74328125 70.80324219 -28.3771875 69.91507812 -28 69 C-27.31146678 67.25040626 -26.62393798 65.50041685 -25.9375 63.75 C-24.86581634 61.05823205 -23.75642517 58.52259333 -22.4375 55.9375 C-20.93105877 52.8591201 -19.92451207 49.81136931 -18.8828125 46.5546875 C-17.51591261 42.59914534 -15.83318037 38.78307363 -14.1953125 34.93359375 C-13.1347331 32.33066849 -12.22171941 29.74080717 -11.375 27.0625 C-10.31088885 23.70692223 -8.83900063 21.00927376 -7 18 C-6.855625 17.21625 -6.71125 16.4325 -6.5625 15.625 C-5.92889237 12.66816441 -4.64601155 10.48325016 -3.03515625 7.94140625 C-1.62001103 5.41773888 -1.62001103 5.41773888 0 0 Z M10 31 C7.81002011 35.08451762 7.81002011 35.08451762 6.5 39.5 C5.87070089 42.64649556 4.42968015 45.14063969 3 48 C3 48.99 3 49.98 3 51 C7.62 51 12.24 51 17 51 C16.52800233 45.524827 15.6541196 41.88358006 13 37 C12.30028027 35.01132287 11.62335603 33.01391949 11 31 C10.67 31 10.34 31 10 31 Z " fill="#02824D" transform="translate(516,173)"/>
<path d="M0 0 C0.86302231 0.00142502 1.72604462 0.00285004 2.61521912 0.00431824 C3.59285721 0.00124161 4.5704953 -0.00183502 5.57775879 -0.00500488 C6.63611435 0.00218063 7.69446991 0.00936615 8.78489685 0.01676941 C10.4085038 0.01745674 10.4085038 0.01745674 12.06491089 0.01815796 C14.35561721 0.02118257 16.64632144 0.02907507 18.93699646 0.04142761 C22.45733363 0.05968031 25.97740794 0.06193738 29.49778748 0.06169128 C31.71849289 0.06660641 33.93919651 0.0724347 36.15989685 0.07926941 C37.22027664 0.08038223 38.28065643 0.08149506 39.37316895 0.0826416 C40.34765488 0.08902145 41.32214081 0.09540131 42.32615662 0.10197449 C43.61949669 0.10769218 43.61949669 0.10769218 44.93896484 0.11352539 C46.9059906 0.24723816 46.9059906 0.24723816 47.9059906 1.24723816 C47.99268492 2.73595676 48.01302554 4.22868316 48.00364685 5.71989441 C48.00114929 6.52950623 47.99865173 7.33911804 47.99607849 8.17326355 C47.98697449 9.20830017 47.97787048 10.24333679 47.9684906 11.30973816 C47.9478656 14.58911316 47.9272406 17.86848816 47.9059906 21.24723816 C38.0059906 21.24723816 28.1059906 21.24723816 17.9059906 21.24723816 C17.9059906 26.19723816 17.9059906 31.14723816 17.9059906 36.24723816 C27.4759906 36.24723816 37.0459906 36.24723816 46.9059906 36.24723816 C46.9059906 42.84723816 46.9059906 49.44723816 46.9059906 56.24723816 C37.3359906 56.24723816 27.7659906 56.24723816 17.9059906 56.24723816 C17.9059906 61.19723816 17.9059906 66.14723816 17.9059906 71.24723816 C27.8059906 71.24723816 37.7059906 71.24723816 47.9059906 71.24723816 C47.9266156 74.52661316 47.9472406 77.80598816 47.9684906 81.18473816 C47.9775946 82.21977478 47.98669861 83.2548114 47.99607849 84.32121277 C47.99857605 85.13082458 48.00107361 85.9404364 48.00364685 86.77458191 C48.00888367 87.60723572 48.01412048 88.43988953 48.01951599 89.29777527 C47.9059906 91.24723816 47.9059906 91.24723816 46.9059906 92.24723816 C45.38194253 92.34562486 43.85337647 92.3752235 42.32615662 92.37663269 C40.86442772 92.38136093 40.86442772 92.38136093 39.37316895 92.38618469 C38.31278915 92.38416046 37.25240936 92.38213623 36.15989685 92.38005066 C34.53772499 92.38148575 34.53772499 92.38148575 32.88278198 92.38294983 C30.59030601 92.38363187 28.29782812 92.38177593 26.00535583 92.37760925 C22.48716405 92.37226652 18.96910023 92.3775508 15.45091248 92.38395691 C13.22890698 92.38329603 11.00690157 92.38201467 8.78489685 92.38005066 C7.19736351 92.38308701 7.19736351 92.38308701 5.57775879 92.38618469 C4.6001207 92.38303253 3.6224826 92.37988037 2.61521912 92.37663269 C1.32068565 92.3754393 1.32068565 92.3754393 0 92.3742218 C-2.0940094 92.24723816 -2.0940094 92.24723816 -4.0940094 91.24723816 C-4.14027731 79.67763779 -4.17585031 68.10805931 -4.19763374 56.53838539 C-4.2080868 51.16656357 -4.22227369 45.79480489 -4.24488831 40.42301941 C-4.26656251 35.24240368 -4.27856655 30.06184881 -4.28376389 24.88119125 C-4.28746942 22.90116289 -4.29470502 20.92113798 -4.30546951 18.94113541 C-4.31991242 16.1754197 -4.32199038 13.40995794 -4.32106018 10.64421082 C-4.32825073 9.81918564 -4.33544128 8.99416046 -4.34284973 8.14413452 C-4.31492267 0.50945977 -4.31492267 0.50945977 0 0 Z " fill="#02824E" transform="translate(241.09400939941406,43.75276184082031)"/>
<path d="M0 0 C1.67859759 -0.02135375 3.35709103 -0.05517898 5.03515625 -0.10253906 C17.72745956 -0.45695993 29.70175818 0.31857683 39.8371582 8.93041992 C45.41449757 14.67436545 47.03343783 19.99381891 47.06811523 27.90893555 C46.56575218 36.55537662 45.91652956 43.13557317 40.40014648 50.0769043 C38.86499023 51.4050293 38.86499023 51.4050293 35.86499023 51.4050293 C35.53499023 52.3950293 35.20499023 53.3850293 34.86499023 54.4050293 C28.24150352 58.82068711 21.05144738 58.67411849 13.36499023 58.5300293 C8.66249023 58.4681543 8.66249023 58.4681543 3.86499023 58.4050293 C3.86499023 69.6250293 3.86499023 80.8450293 3.86499023 92.4050293 C0.58561523 92.4256543 -2.69375977 92.4462793 -6.07250977 92.4675293 C-7.10754639 92.4766333 -8.14258301 92.4857373 -9.20898438 92.49511719 C-10.01859619 92.49761475 -10.82820801 92.5001123 -11.66235352 92.50268555 C-12.49500732 92.50792236 -13.32766113 92.51315918 -14.18554688 92.51855469 C-16.13500977 92.4050293 -16.13500977 92.4050293 -17.13500977 91.4050293 C-17.23020344 88.6051321 -17.26054921 85.82996756 -17.24853516 83.02978516 C-17.24868118 82.15181778 -17.24882721 81.2738504 -17.24897766 80.36927795 C-17.24827821 77.45278495 -17.24048432 74.53635496 -17.23266602 71.61987305 C-17.23080195 69.60348038 -17.22937799 67.58708725 -17.2283783 65.57069397 C-17.22455221 60.25237792 -17.21472115 54.93408899 -17.20367432 49.61578369 C-17.19346214 44.19332242 -17.18888109 38.77085678 -17.18383789 33.34838867 C-17.17309896 22.70059027 -17.15602146 12.05281203 -17.13500977 1.4050293 C-12.38349201 -0.97072958 -5.2757117 0.05021589 0 0 Z M3.86499023 19.4050293 C3.86499023 26.6650293 3.86499023 33.9250293 3.86499023 41.4050293 C11.01766517 41.54865163 11.01766517 41.54865163 17.23999023 39.7175293 C18.07272461 39.40428711 18.90545898 39.09104492 19.76342773 38.76831055 C22.50048075 36.99278731 23.01161352 35.51207492 23.86499023 32.4050293 C23.7855582 27.95683554 23.34624293 25.98759835 20.48999023 22.5300293 C14.85354662 17.96719399 12.22959297 19.4050293 3.86499023 19.4050293 Z " fill="#02814E" transform="translate(580.135009765625,43.594970703125)"/>
<path d="M0 0 C8.1969097 -0.02255425 16.39379545 -0.04091696 24.59072781 -0.05181217 C28.39651577 -0.0570402 32.20228148 -0.06413638 36.00805664 -0.07543945 C39.67792544 -0.0862712 43.34777278 -0.09227744 47.01765633 -0.09487724 C48.42074992 -0.09673097 49.82384229 -0.1003506 51.2269268 -0.10573006 C53.1856968 -0.11294419 55.1444882 -0.11340809 57.10327148 -0.11352539 C58.22023911 -0.115746 59.33720673 -0.11796661 60.48802185 -0.12025452 C63 0 63 0 64 1 C64.09986975 3.84335048 64.13877881 6.65697163 64.125 9.5 C64.12886719 10.29792969 64.13273437 11.09585938 64.13671875 11.91796875 C64.12660767 17.87339233 64.12660767 17.87339233 63 19 C56.07 19 49.14 19 42 19 C42 42.1 42 65.2 42 89 C34.74 89 27.48 89 20 89 C19.67 66.23 19.34 43.46 19 20 C12.73 19.67 6.46 19.34 0 19 C0 12.73 0 6.46 0 0 Z " fill="#02824D" transform="translate(427,173)"/>
<path d="M0 0 C6.93 0 13.86 0 21 0 C22 1 22 1 22.12025452 3.73976135 C22.1169236 5.57509682 22.1169236 5.57509682 22.11352539 7.44750977 C22.11367142 8.12065216 22.11381744 8.79379456 22.1139679 9.48733521 C22.11326878 11.72205784 22.10547652 13.9566981 22.09765625 16.19140625 C22.09579206 17.73697362 22.09436816 19.28254157 22.09336853 20.82810974 C22.0895434 24.90357077 22.07971317 28.97899637 22.06866455 33.05444336 C22.05845032 37.21011882 22.05387089 41.36579999 22.04882812 45.52148438 C22.03809089 53.68100768 22.02049414 61.84049536 22 70 C31.57 70 41.14 70 51 70 C51 76.27 51 82.54 51 89 C34.17 89 17.34 89 0 89 C0 59.63 0 30.26 0 0 Z " fill="#03824E" transform="translate(574,173)"/>
<path d="M0 0 C0.98484375 -0.00128906 1.9696875 -0.00257813 2.984375 -0.00390625 C4.02078125 -0.00003906 5.0571875 0.00382813 6.125 0.0078125 C7.67960937 0.00201172 7.67960937 0.00201172 9.265625 -0.00390625 C10.25046875 -0.00261719 11.2353125 -0.00132812 12.25 0 C13.16007812 0.00112793 14.07015625 0.00225586 15.0078125 0.00341797 C17.125 0.1328125 17.125 0.1328125 18.125 1.1328125 C18.22016211 3.8716967 18.25054594 6.58529191 18.23852539 9.32446289 C18.23867142 10.18292313 18.23881744 11.04138336 18.2389679 11.92585754 C18.23826847 14.77741988 18.2304747 17.62891775 18.22265625 20.48046875 C18.22079218 22.45202092 18.21936822 24.42357355 18.21836853 26.39512634 C18.21454251 31.59507517 18.20471152 36.79499625 18.19366455 41.99493408 C18.18345222 47.29674911 18.17887129 52.5985686 18.17382812 57.90039062 C18.16308933 68.31121013 18.14601191 78.72200901 18.125 89.1328125 C14.31251574 89.16168486 10.5000593 89.17956742 6.6875 89.1953125 C5.59888672 89.20369141 4.51027344 89.21207031 3.38867188 89.22070312 C2.35419922 89.22392578 1.31972656 89.22714844 0.25390625 89.23046875 C-0.70443115 89.23570557 -1.66276855 89.24094238 -2.65014648 89.24633789 C-4.875 89.1328125 -4.875 89.1328125 -5.875 88.1328125 C-5.97546803 85.42980951 -6.01116452 82.75232904 -6.00439453 80.04882812 C-6.00614685 79.20172775 -6.00789917 78.35462738 -6.00970459 77.4818573 C-6.01412409 74.66757184 -6.01118477 71.85334866 -6.0078125 69.0390625 C-6.00848551 67.09232572 -6.00945551 65.14558903 -6.01071167 63.19885254 C-6.01218878 59.11319175 -6.01003368 55.02755279 -6.00537109 50.94189453 C-5.9996738 45.69234734 -6.00295274 40.44285128 -6.00894356 35.19330597 C-6.01254883 31.17172863 -6.01141074 27.15016351 -6.00881577 23.12858582 C-6.0081464 21.19239801 -6.00897525 19.25620911 -6.01129532 17.32002258 C-6.01382129 14.61891726 -6.00998205 11.91789591 -6.00439453 9.21679688 C-6.00641876 8.40844894 -6.00844299 7.60010101 -6.01052856 6.76725769 C-5.98448679 0.00741703 -5.98448679 0.00741703 0 0 Z " fill="#02804B" transform="translate(287.875,172.8671875)"/>
<path d="M0 0 C7.26 0 14.52 0 22 0 C22 29.37 22 58.74 22 89 C14.41 89 6.82 89 -1 89 C-1.02255012 77.54349633 -1.04091456 66.08700729 -1.05181217 54.63048649 C-1.05704122 49.31134787 -1.06413927 43.99222516 -1.07543945 38.6730957 C-1.08626755 33.54436015 -1.09227667 28.41563994 -1.09487724 23.28689384 C-1.09673163 21.32558386 -1.10035251 19.36427476 -1.10573006 17.40297127 C-1.11293946 14.66584553 -1.11399099 11.92878403 -1.11352539 9.19165039 C-1.11712067 8.37238068 -1.12071594 7.55311096 -1.12442017 6.70901489 C-1.11405216 1.11405216 -1.11405216 1.11405216 0 0 Z " fill="#02834D" transform="translate(404,173)"/>
<path d="M0 0 C5.95725916 5.76650948 9.03731809 11.59822542 9.4375 19.9375 C9.17159068 27.80599847 5.65552202 34.59037024 0 40 C-7.19731229 45.09472668 -14.32422058 46.30935076 -23 45 C-29.83799849 42.86488905 -35.25812267 39.16236564 -39 33 C-42.40112241 25.82272647 -43.0415706 19.13215671 -40.9375 11.5 C-38.514686 4.94481634 -34.15512729 -0.11492643 -28 -3.4375 C-18.75210863 -7.41603835 -7.79477604 -6.70713287 0 0 Z M-32 7 C-35.74876157 12.35537367 -36.83023606 17.47671668 -36 24 C-34.07974755 30.17719763 -30.32931323 34.42651619 -25 38 C-19.39614002 39.86795333 -13.29258879 39.73535867 -7.6875 37.9375 C-3.04829636 34.59295784 0.80927539 30.33612279 3 25 C3.99091631 18.22489777 2.9646664 12.60252859 -1 7 C-5.19944056 2.68390832 -10.59563043 0.51065544 -16.5 -0.375 C-22.48677695 0.52301654 -27.62903337 2.75391813 -32 7 Z " fill="#047E50" transform="translate(788,18)"/>
<path d="M0 0 C1.39120471 0.00015906 2.78241534 0.00585033 4.17358398 0.01586914 C4.90463852 0.01728409 5.63569305 0.01869904 6.38890076 0.02015686 C8.73253406 0.02577131 11.07607313 0.03832617 13.41967773 0.05102539 C15.00496282 0.05603853 16.59024939 0.06060176 18.17553711 0.06469727 C22.06945383 0.07574542 25.96329979 0.09301967 29.85717773 0.11352539 C29.85717773 0.44352539 29.85717773 0.77352539 29.85717773 1.11352539 C20.61717773 1.44352539 11.37717773 1.77352539 1.85717773 2.11352539 C1.52717773 30.49352539 1.19717773 58.87352539 0.85717773 88.11352539 C11.08717773 88.11352539 21.31717773 88.11352539 31.85717773 88.11352539 C34.82717773 88.44352539 37.79717773 88.77352539 40.85717773 89.11352539 C40.85717773 89.44352539 40.85717773 89.77352539 40.85717773 90.11352539 C32.68329325 92.50703555 24.71974867 92.38561128 16.27954102 92.31933594 C13.83526381 92.30085974 11.39136186 92.29882817 8.94702148 92.29907227 C7.39623693 92.29416409 5.84545495 92.28833885 4.29467773 92.28149414 C3.56249023 92.28038132 2.83030273 92.27926849 2.07592773 92.27812195 C-3.0266979 92.22964976 -3.0266979 92.22964976 -4.14282227 91.11352539 C-4.24334102 88.31900268 -4.2789812 85.54916184 -4.2722168 82.75415039 C-4.27396912 81.87778931 -4.27572144 81.00142822 -4.27752686 80.09851074 C-4.28194659 77.18682912 -4.27900696 74.27520769 -4.27563477 71.36352539 C-4.27630777 69.34952788 -4.27727777 67.33553044 -4.27853394 65.3215332 C-4.28001107 61.09463734 -4.27785584 56.86776256 -4.27319336 52.64086914 C-4.26749607 47.20972007 -4.27077499 41.7786204 -4.27676582 36.34747314 C-4.28037101 32.18692652 -4.27923305 28.0263917 -4.27663803 23.86584473 C-4.27596864 21.86267084 -4.27679759 19.8594959 -4.27911758 17.85632324 C-4.28164341 15.06181987 -4.27780451 12.26739768 -4.2722168 9.47290039 C-4.27424103 8.63650024 -4.27626526 7.8001001 -4.27835083 6.93835449 C-4.25308453 0.15363041 -4.25308453 0.15363041 0 0 Z " fill="#0F6846" transform="translate(20.142822265625,43.886474609375)"/>
<path d="M0 0 C13 0 13 0 16.3125 2.125 C18.23528279 5.40085216 18.43440896 7.26408298 18 11 C17.34 11 16.68 11 16 11 C14.59420508 13.62526741 14.59420508 13.62526741 14 17 C15.0409318 19.59159825 16.45859586 21.64255837 18 24 C18 24.66 18 25.32 18 26 C15.69 26 13.38 26 11 26 C9.35 23.03 7.7 20.06 6 17 C5.67 19.97 5.34 22.94 5 26 C3.35 26 1.7 26 0 26 C0 17.42 0 8.84 0 0 Z M5 6 C5 7.32 5 8.64 5 10 C6.98 10 8.96 10 11 10 C11.33 8.68 11.66 7.36 12 6 C9.69 6 7.38 6 5 6 Z " fill="#057F50" transform="translate(764,25)"/>
<path d="M0 0 C9.24 0 18.48 0 28 0 C28 6.6 28 13.2 28 20 C18.76 20 9.52 20 0 20 C0 19.67 0 19.34 0 19 C8.25 19 16.5 19 25 19 C24.67 17.68 24.34 16.36 24 15 C24.55859375 12.203125 24.55859375 12.203125 25.4375 9.25 C25.72496094 8.26515625 26.01242187 7.2803125 26.30859375 6.265625 C26.53675781 5.51796875 26.76492188 4.7703125 27 4 C26.26394531 4.16371094 25.52789062 4.32742187 24.76953125 4.49609375 C22.31716144 4.94229362 20.16879518 5.10455585 17.6875 5.0625 C15.8621875 5.0315625 15.8621875 5.0315625 14 5 C14 4.34 14 3.68 14 3 C9.65815798 3.18464366 9.65815798 3.18464366 6 5 C4.33382885 5.04063832 2.66611905 5.042721 1 5 C0.67 3.35 0.34 1.7 0 0 Z " fill="#116842" transform="translate(260,80)"/>
<path d="M0 0 C0.66 0 1.32 0 2 0 C2 26.4 2 52.8 2 80 C0.68 79.01 -0.64 78.02 -2 77 C-2 76.01 -2 75.02 -2 74 C-1.34 74 -0.68 74 0 74 C0 49.58 0 25.16 0 0 Z " fill="#0F633F" transform="translate(669,80)"/>
<path d="M0 0 C0.99 0 1.98 0 3 0 C3.125 2.875 3.125 2.875 3 6 C1 8 1 8 -2.80712891 8.22705078 C-4.4469742 8.22673346 -6.08684017 8.21539681 -7.7265625 8.1953125 C-8.58937836 8.1924826 -9.45219421 8.18965271 -10.34115601 8.18673706 C-13.1025772 8.17552333 -15.8636765 8.15041684 -18.625 8.125 C-20.49478699 8.11497173 -22.36457905 8.10584562 -24.234375 8.09765625 C-28.82304109 8.07558012 -33.41146593 8.04104234 -38 8 C-37.67 7.01 -37.34 6.02 -37 5 C-28.64208826 3.95670205 -20.44805081 3.95132236 -12.0390625 4.12695312 C-11.059375 4.13791016 -10.0796875 4.14886719 -9.0703125 4.16015625 C-7.75184326 4.18541382 -7.75184326 4.18541382 -6.40673828 4.21118164 C-3.8232749 3.98449308 -2.21915624 3.30529135 0 2 C0 1.34 0 0.68 0 0 Z " fill="#15744D" transform="translate(477,128)"/>
<path d="M0 0 C0.33 0 0.66 0 1 0 C1 11.22 1 22.44 1 34 C-5.6 34 -12.2 34 -19 34 C-19.33 33.34 -19.66 32.68 -20 32 C-18.17662109 31.90912109 -18.17662109 31.90912109 -16.31640625 31.81640625 C-14.73175772 31.73201668 -13.14712298 31.6473679 -11.5625 31.5625 C-10.35883789 31.50352539 -10.35883789 31.50352539 -9.13085938 31.44335938 C-5.24760439 31.5945704 -5.24760439 31.5945704 -2 30 C-1.85361067 27.86754518 -1.77254188 25.73054663 -1.71875 23.59375 C-1.68136719 22.29308594 -1.64398437 20.99242187 -1.60546875 19.65234375 C-1.5697606 18.2682433 -1.53461129 16.88412832 -1.5 15.5 C-1.43253065 12.80185649 -1.35879127 10.10415131 -1.28125 7.40625 C-1.25095703 6.20291016 -1.22066406 4.99957031 -1.18945312 3.75976562 C-1 1 -1 1 0 0 Z " fill="#0F6745" transform="translate(583,102)"/>
<path d="M0 0 C0.8343457 -0.00451172 1.66869141 -0.00902344 2.52832031 -0.01367188 C8.0496214 -0.00062429 13.39712788 0.43062184 18.875 1.125 C18.875 1.455 18.875 1.785 18.875 2.125 C15.11080551 2.9989006 11.6225156 3.2536811 7.76171875 3.2578125 C6.59576172 3.25910156 5.42980469 3.26039063 4.22851562 3.26171875 C3.01873047 3.25785156 1.80894531 3.25398437 0.5625 3.25 C-0.63568359 3.25386719 -1.83386719 3.25773438 -3.06835938 3.26171875 C-9.18195653 3.254982 -15.08238256 3.07080099 -21.125 2.125 C-21.125 1.795 -21.125 1.465 -21.125 1.125 C-14.08734888 0.22108151 -7.08567715 0.01574012 0 0 Z " fill="#157C55" transform="translate(42.125,131.875)"/>
<path d="M0 0 C0.66 0 1.32 0 2 0 C2 0.66 2 1.32 2 2 C2.66 1.67 3.32 1.34 4 1 C5.48688888 0.84826192 6.97956556 0.75099689 8.47265625 0.68359375 C9.37306641 0.64169922 10.27347656 0.59980469 11.20117188 0.55664062 C12.14541016 0.51732422 13.08964844 0.47800781 14.0625 0.4375 C15.43825195 0.37272461 15.43825195 0.37272461 16.84179688 0.30664062 C19.5608222 0.18523836 22.27981289 0.09112104 25 0 C25.85319824 -0.04366699 26.70639648 -0.08733398 27.58544922 -0.13232422 C28.77871826 -0.17317139 28.77871826 -0.17317139 29.99609375 -0.21484375 C30.69790771 -0.24570068 31.39972168 -0.27655762 32.12280273 -0.30834961 C34.56796135 0.09329369 35.43594265 1.13956921 37 3 C32.05227976 3.16745546 27.1044028 3.32803118 22.15625 3.48217773 C20.4722693 3.53561424 18.78834761 3.59094488 17.10449219 3.64819336 C14.68697842 3.73005852 12.26933568 3.80515472 9.8515625 3.87890625 C9.0963028 3.90594131 8.34104309 3.93297638 7.56289673 3.96083069 C2.22774341 4.11387171 2.22774341 4.11387171 0 3 C0 2.01 0 1.02 0 0 Z " fill="#137B50" transform="translate(237,132)"/>
<path d="M0 0 C0.66 0 1.32 0 2 0 C2 6.6 2 13.2 2 20 C-7.24 20 -16.48 20 -26 20 C-26 19.67 -26 19.34 -26 19 C-17.75 19 -9.5 19 -1 19 C-1.33 17.68 -1.66 16.36 -2 15 C-1.44140625 12.203125 -1.44140625 12.203125 -0.5625 9.25 C-0.27503906 8.26515625 0.01242187 7.2803125 0.30859375 6.265625 C0.53675781 5.51796875 0.76492188 4.7703125 1 4 C0.34 3.67 -0.32 3.34 -1 3 C-0.67 2.01 -0.34 1.02 0 0 Z " fill="#1D714D" transform="translate(286,80)"/>
<path d="M0 0 C16.17 0 32.34 0 49 0 C49 0.33 49 0.66 49 1 C48.1300943 1.01213028 48.1300943 1.01213028 47.24261475 1.02450562 C41.20790637 1.11054692 35.17352663 1.21005044 29.13916016 1.31738281 C26.88693764 1.35567157 24.634654 1.39052461 22.38232422 1.421875 C19.14528553 1.46752737 15.90866764 1.52552215 12.671875 1.5859375 C11.16074127 1.60326431 11.16074127 1.60326431 9.61907959 1.62094116 C8.20806976 1.6507457 8.20806976 1.6507457 6.76855469 1.68115234 C5.94248718 1.69447601 5.11641968 1.70779968 4.26531982 1.7215271 C1.79884149 2.02472816 0.14090571 2.76716538 -2 4 C-1.34 2.68 -0.68 1.36 0 0 Z " fill="#197655" transform="translate(239,44)"/>
<path d="M0 0 C5.94 0.33 11.88 0.66 18 1 C13.87761209 5.12238791 7.04583385 4.05695568 1.5625 4.0625 C-0.62504093 4.04653255 -2.81257121 4.02730494 -5 4 C-2 2 -2 2 0 2 C0 1.34 0 0.68 0 0 Z " fill="#106F47" transform="translate(354,260)"/>
<path d="M0 0 C0.33 0 0.66 0 1 0 C1 3.96 1 7.92 1 12 C-0.65 12 -2.3 12 -4 12 C-4.32966968 7.79671152 -4.4227293 5.64091217 -2.0625 2.0625 C-1.381875 1.381875 -0.70125 0.70125 0 0 Z " fill="#0D6C42" transform="translate(335,212)"/>
<path d="M0 0 C0.33 0.66 0.66 1.32 1 2 C1.99 2 2.98 2 4 2 C4 1.34 4 0.68 4 0 C9.45769811 -0.11138159 14.61509359 0.08342019 20 1 C20 1.66 20 2.32 20 3 C13.4 3 6.8 3 0 3 C0 2.01 0 1.02 0 0 Z " fill="#137C54" transform="translate(370,132)"/>
<path d="M0 0 C6.52307692 -0.36923077 6.52307692 -0.36923077 8.9375 1.5 C9.288125 1.995 9.63875 2.49 10 3 C9 4 9 4 7.14233398 4.11352539 C6.35157471 4.10828857 5.56081543 4.10305176 4.74609375 4.09765625 C3.89208984 4.09443359 3.03808594 4.09121094 2.15820312 4.08789062 C1.26037109 4.07951172 0.36253906 4.07113281 -0.5625 4.0625 C-1.46419922 4.05798828 -2.36589844 4.05347656 -3.29492188 4.04882812 C-5.53001314 4.03700225 -7.76497437 4.0205222 -10 4 C-10 3.67 -10 3.34 -10 3 C-6.7 2.67 -3.4 2.34 0 2 C0 1.34 0 0.68 0 0 Z " fill="#0F6B45" transform="translate(546,132)"/>
<path d="M0 0 C0.99 0.33 1.98 0.66 3 1 C3.0270043 2.45823212 3.04639787 3.91660675 3.0625 5.375 C3.07410156 6.18710938 3.08570313 6.99921875 3.09765625 7.8359375 C3 10 3 10 2 12 C0.68 12 -0.64 12 -2 12 C-2 9.69 -2 7.38 -2 5 C-1.34 5 -0.68 5 0 5 C0 3.35 0 1.7 0 0 Z " fill="#156D4A" transform="translate(317,84)"/>
<path d="M0 0 C2.875 -0.1875 2.875 -0.1875 6 0 C6.66 0.99 7.32 1.98 8 3 C2.06 3 -3.88 3 -10 3 C-10 2.34 -10 1.68 -10 1 C-2.25 0.875 -2.25 0.875 0 2 C0 1.34 0 0.68 0 0 Z " fill="#095B39" transform="translate(482,189)"/>
<path d="M0 0 C0.33 0 0.66 0 1 0 C1 3.3 1 6.6 1 10 C1.66 10 2.32 10 3 10 C3 11.65 3 13.3 3 15 C1.68 15 0.36 15 -1 15 C-1.02685412 12.68756208 -1.04632841 10.3750373 -1.0625 8.0625 C-1.07410156 6.77472656 -1.08570313 5.48695312 -1.09765625 4.16015625 C-1 1 -1 1 0 0 Z " fill="#0E7A4E" transform="translate(581,69)"/>
<path d="M0 0 C3 1 3 1 4 3 C10.27 3.33 16.54 3.66 23 4 C23.33 3.34 23.66 2.68 24 2 C24 2.99 24 3.98 24 5 C16.08 5 8.16 5 0 5 C0 3.35 0 1.7 0 0 Z " fill="#13754D" transform="translate(481,257)"/>
<path d="M0 0 C0.66 0.33 1.32 0.66 2 1 C1.375 2.875 1.375 2.875 0 5 C-4.37674895 7.03569718 -8.22050561 7.19117978 -13 7 C-12.67 6.01 -12.34 5.02 -12 4 C-11.13375 4.04125 -10.2675 4.0825 -9.375 4.125 C-5.87641532 3.99542279 -3.25448403 3.23980344 0 2 C0 1.34 0 0.68 0 0 Z " fill="#04743F" transform="translate(362,109)"/>
<path d="M0 0 C-0.33 0.66 -0.66 1.32 -1 2 C-7.6 2 -14.2 2 -21 2 C-21 1.67 -21 1.34 -21 1 C-18.62625224 0.63457573 -16.25173828 0.28243861 -13.875 -0.0625 C-12.87726563 -0.2181543 -12.87726563 -0.2181543 -11.859375 -0.37695312 C-7.65885188 -0.97408631 -4.13930366 -0.92199443 0 0 Z " fill="#127A50" transform="translate(99,133)"/>
<path d="M0 0 C0.33 0 0.66 0 1 0 C1.06058594 0.58007812 1.12117187 1.16015625 1.18359375 1.7578125 C1.56243299 5.28975985 1.95368218 8.75914733 2.625 12.25 C3.01748706 15.12823848 2.73892069 17.20852183 2 20 C-1.15390818 15.26913773 -1.02138612 12.37012073 -0.5625 6.8125 C-0.46066406 5.54019531 -0.35882812 4.26789062 -0.25390625 2.95703125 C-0.17011719 1.98121094 -0.08632813 1.00539062 0 0 Z " fill="#14794F" transform="translate(549,53)"/>
<path d="M0 0 C1.32 0.66 2.64 1.32 4 2 C3.34 2 2.68 2 2 2 C2 2.66 2 3.32 2 4 C-2 6 -6 8 -10 10 C-10 8.68 -10 7.36 -10 6 C-6.7 4.68 -3.4 3.36 0 2 C0 1.34 0 0.68 0 0 Z " fill="#108645" transform="translate(660,193)"/>
<path d="M0 0 C0.33 0 0.66 0 1 0 C1.33 4.95 1.66 9.9 2 15 C-2.455 14.01 -2.455 14.01 -7 13 C-6.67 12.34 -6.34 11.68 -6 11 C-4.35 11 -2.7 11 -1 11 C-0.67 7.37 -0.34 3.74 0 0 Z " fill="#117C4C" transform="translate(489,176)"/>
<path d="M0 0 C1.28132813 0.00902344 2.56265625 0.01804688 3.8828125 0.02734375 C4.87023437 0.03894531 5.85765625 0.05054688 6.875 0.0625 C6.545 0.7225 6.215 1.3825 5.875 2.0625 C3.00390625 2.546875 3.00390625 2.546875 -0.5625 2.8125 C-2.32400391 2.95945313 -2.32400391 2.95945313 -4.12109375 3.109375 C-7.125 3.0625 -7.125 3.0625 -9.125 1.0625 C-6.12186252 -0.43906874 -3.33432478 -0.03031204 0 0 Z " fill="#047632" transform="translate(347.125,134.9375)"/>
<path d="M0 0 C1.53166168 4.08443115 0.63081652 7.79455657 0 12 C-0.99 12 -1.98 12 -3 12 C-2.88601335 10.37419034 -2.75844341 8.74932843 -2.625 7.125 C-2.55539062 6.22007813 -2.48578125 5.31515625 -2.4140625 4.3828125 C-2 2 -2 2 0 0 Z " fill="#13794E" transform="translate(285,86)"/>
<path d="M0 0 C0 1.98 0 3.96 0 6 C-0.66 5.34 -1.32 4.68 -2 4 C-2.99 4.66 -3.98 5.32 -5 6 C-6.32 5.34 -7.64 4.68 -9 4 C-3.375 0 -3.375 0 0 0 Z " fill="#49A663" transform="translate(671,191)"/>
<path d="M0 0 C0.66 0 1.32 0 2 0 C2.28875 0.61875 2.5775 1.2375 2.875 1.875 C3.93720042 4.13325765 3.93720042 4.13325765 6 6 C2.7 6 -0.6 6 -4 6 C-4 5.34 -4 4.68 -4 4 C-2.68 4 -1.36 4 0 4 C0 2.68 0 1.36 0 0 Z " fill="#177651" transform="translate(200,58)"/>
<path d="M0 0 C0 0.99 0 1.98 0 3 C-0.66 3 -1.32 3 -2 3 C-2 3.99 -2 4.98 -2 6 C-3.32 6 -4.64 6 -6 6 C-6 5.01 -6 4.02 -6 3 C-2.66666667 0 -2.66666667 0 0 0 Z M-9 6 C-8.01 6.495 -8.01 6.495 -7 7 C-7.99 7.495 -7.99 7.495 -9 8 C-9 7.34 -9 6.68 -9 6 Z " fill="#087246" transform="translate(184,48)"/>
<path d="M0 0 C1.32 0.33 2.64 0.66 4 1 C4 2.32 4 3.64 4 5 C2.68 5.33 1.36 5.66 0 6 C0 4.02 0 2.04 0 0 Z " fill="#46B04C" transform="translate(790,183)"/>
<path d="M0 0 C3.34249629 0.59687434 5.46436342 1.73603877 8 4 C8 4.66 8 5.32 8 6 C7.01 6 6.02 6 5 6 C4.67 6.66 4.34 7.32 4 8 C2.5393715 5.35261084 2 4.10551666 2 1 C1.34 0.67 0.68 0.34 0 0 Z " fill="#0A7441" transform="translate(430,118)"/>
<path d="M0 0 C0.66 0 1.32 0 2 0 C2 2.64 2 5.28 2 8 C0 6.6875 0 6.6875 -2 5 C-2 4.01 -2 3.02 -2 2 C-1.34 2 -0.68 2 0 2 C0 1.34 0 0.68 0 0 Z " fill="#14784D" transform="translate(669,152)"/>
<path d="M0 0 C0.33 0 0.66 0 1 0 C1.33 2.64 1.66 5.28 2 8 C0.68 8.33 -0.64 8.66 -2 9 C-2.25 3.375 -2.25 3.375 0 0 Z " fill="#09723F" transform="translate(386,91)"/>
<path d="M0 0 C0.66 0 1.32 0 2 0 C2.66 2.31 3.32 4.62 4 7 C2.68 7 1.36 7 0 7 C0 4.69 0 2.38 0 0 Z " fill="#167A51" transform="translate(315,89)"/>
<path d="M0 0 C0.99 0.33 1.98 0.66 3 1 C3 2.98 3 4.96 3 7 C2.01 7 1.02 7 0 7 C0 4.69 0 2.38 0 0 Z " fill="#038164" transform="translate(463,56)"/>
<path d="M0 0 C0.33 0 0.66 0 1 0 C1 5.61 1 11.22 1 17 C0.67 17 0.34 17 0 17 C0 11.39 0 5.78 0 0 Z " fill="#005D10" transform="translate(626,244)"/>
<path d="M0 0 C0.66 0.66 1.32 1.32 2 2 C0.35 3.32 -1.3 4.64 -3 6 C-4.32 5.34 -5.64 4.68 -7 4 C-4.69 3.34 -2.38 2.68 0 2 C0 1.34 0 0.68 0 0 Z " fill="#047043" transform="translate(241,238)"/>
<path d="M0 0 C0.33 0.99 0.66 1.98 1 3 C-1.64 3 -4.28 3 -7 3 C-4.49955934 -0.00052879 -4.2621484 0 0 0 Z " fill="#11724A" transform="translate(479,187)"/>
<path d="" fill="#1E7E37" transform="translate(0,0)"/>
<path d="" fill="#077829" transform="translate(0,0)"/>
<path d="" fill="#137414" transform="translate(0,0)"/>
<path d="M0 0 C2 1 2 1 2 1 Z " fill="#20551F" transform="translate(234,263)"/>
<path d="M0 0 C2 1 2 1 2 1 Z " fill="#1C5829" transform="translate(360,242)"/>
<path d="M0 0 C2 1 2 1 2 1 Z " fill="#0C6425" transform="translate(353,242)"/>
<path d="" fill="#1C7D1D" transform="translate(0,0)"/>
<path d="" fill="#11812E" transform="translate(0,0)"/>
<path d="M0 0 C2 1 2 1 2 1 Z " fill="#1E622A" transform="translate(334,43)"/>
<path d="" fill="#2C8B30" transform="translate(0,0)"/>
<path d="" fill="#196F2E" transform="translate(0,0)"/>
<path d="" fill="#0C7D30" transform="translate(0,0)"/>
<path d="" fill="#38C43C" transform="translate(0,0)"/>
<path d="" fill="#106E23" transform="translate(0,0)"/>
<path d="" fill="#0D7728" transform="translate(0,0)"/>
<path d="" fill="#36CC35" transform="translate(0,0)"/>
<path d="" fill="#0F6F28" transform="translate(0,0)"/>
<path d="" fill="#17995F" transform="translate(0,0)"/>
<path d="" fill="#22772B" transform="translate(0,0)"/>
<path d="" fill="#076F48" transform="translate(0,0)"/>
<path d="" fill="#2E7230" transform="translate(0,0)"/>
<path d="" fill="#1D773B" transform="translate(0,0)"/>
<path d="" fill="#046217" transform="translate(0,0)"/>
<path d="" fill="#2CC74C" transform="translate(0,0)"/>
<path d="" fill="#3D973E" transform="translate(0,0)"/>
<path d="" fill="#0E7E44" transform="translate(0,0)"/>
<path d="" fill="#187D34" transform="translate(0,0)"/>
<path d="" fill="#287331" transform="translate(0,0)"/>
<path d="" fill="#168120" transform="translate(0,0)"/>
<path d="" fill="#1D7A32" transform="translate(0,0)"/>
<path d="" fill="#0F7D34" transform="translate(0,0)"/>
<path d="" fill="#19802B" transform="translate(0,0)"/>
<path d="" fill="#0B7F2A" transform="translate(0,0)"/>
<path d="" fill="#177D2D" transform="translate(0,0)"/>
<path d="" fill="#147438" transform="translate(0,0)"/>
<path d="" fill="#227338" transform="translate(0,0)"/>
<path d="" fill="#0E7539" transform="translate(0,0)"/>
<path d="" fill="#156D2D" transform="translate(0,0)"/>
<path d="" fill="#336C39" transform="translate(0,0)"/>
<path d="" fill="#04793D" transform="translate(0,0)"/>
<path d="" fill="#197F2D" transform="translate(0,0)"/>
<path d="" fill="#166739" transform="translate(0,0)"/>
<path d="" fill="#1C773D" transform="translate(0,0)"/>
<path d="" fill="#028432" transform="translate(0,0)"/>
<path d="" fill="#137932" transform="translate(0,0)"/>
<path d="" fill="#197035" transform="translate(0,0)"/>
<path d="" fill="#0C6F30" transform="translate(0,0)"/>
<path d="" fill="#176F2B" transform="translate(0,0)"/>
<path d="" fill="#156A3C" transform="translate(0,0)"/>
<path d="" fill="#177A2E" transform="translate(0,0)"/>
<path d="" fill="#1C752E" transform="translate(0,0)"/>
<path d="" fill="#227633" transform="translate(0,0)"/>
<path d="" fill="#277134" transform="translate(0,0)"/>
</svg>
